# AST/ASF file generated using VICON BodyLanguage
# -----------------------------------------------
:version 1.10
:name VICON
:units
  mass 1.0
  length 0.45
  angle deg
:documentation
   .ast/.asf automatically generated from VICON data using
   VICON BodyBuilder and BodyLanguage model FoxedUp or BRILLIANT.MOD
:root
   order TX TY TZ RX RY RZ
   axis XYZ
   position 0 0 0  
   orientation 0 0 0 
:bonedata
  begin
     id 1 
     name lhipjoint
     direction 0.537252 -0.787203 0.302774 
     length 2.29576 
     axis 0 0 0  XYZ
  end
  begin
     id 2 
     name lfemur
     direction 0.34202 -0.939693 0  
     length 7.31114  
     axis 0 0 20  XYZ
    dof rx ry rz
    limits (-160.0 20.0)
           (-70.0 70.0)
           (-60.0 70.0)
  end
  begin
     id 3 
     name ltibia
     direction 0.34202 -0.939693 0   
     length 8.36008   
     axis 0 0 20   XYZ
    dof rx
    limits (-10.0 170.0)
  end
  begin
     id 4 
     name lfoot
     direction 0.0969116 -0.266263 0.959016   
     length 2.16704   
     axis -90 7.62852e-016 20   XYZ
    dof rx rz
    limits (-45.0 90.0)
           (-70.0 20.0)
  end
  begin
     id 5 
     name ltoes
     direction 1.53563e-011 -4.21779e-011 1   
     length 1.08338   
     axis -90 7.62852e-016 20   XYZ
    dof rx
    limits (-90.0 20.0)
  end
  begin
     id 6 
     name rhipjoint
     direction -0.588228 -0.754791 0.290308   
     length 2.39434  
     axis 0 0 0  XYZ 
  end
  begin
     id 7 
     name rfemur
     direction -0.34202 -0.939693 0   
     length 7.45207   
     axis 0 0 -20   XYZ
    dof rx ry rz
    limits (-160.0 20.0)
           (-70.0 70.0)
           (-70.0 60.0)
  end
  begin
     id 8 
     name rtibia
     direction -0.34202 -0.939693 0   
     length 8.03565   
     axis 0 0 -20   XYZ
    dof rx
    limits (-10.0 170.0)
 end
 begin
     id 9 
     name rfoot
     direction -0.107009 -0.294004 0.949795   
     length 2.11509  
     axis -90 -7.62852e-016 -20   XYZ
    dof rx rz
    limits (-45.0 90.0)
           (-20.0 70.0)
  end
  begin
     id 10 
     name rtoes
     direction -1.53533e-011 -4.22004e-011 1   
     length 1.05493   
     axis -90 -7.62852e-016 -20   XYZ
    dof rx
    limits (-90.0 20.0)
  end
  begin
     id 11 
     name lowerback
     direction -0.0115208 0.997969 -0.0626515   
     length 2.03153   
     axis 0 0 0   XYZ
    dof rx ry rz
    limits (-20.0 45.0)
           (-30.0 30.0)
           (-30.0 30.0)
  end
  begin
     id 12 
     name upperback
     direction -0.00423475 0.999974 -0.00583614   
     length 2.03619   
     axis 0 0 0   XYZ
    dof rx ry rz
    limits (-20.0 45.0)
           (-30.0 30.0)
           (-30.0 30.0)
  end
  begin
     id 13 
     name thorax
     direction 0.00289429 0.999728 0.0231573   
     length 2.03921   
     axis 0 0 0   XYZ
    dof rx ry rz
    limits (-20.0 45.0)
           (-30.0 30.0)
           (-30.0 30.0)
  end
  begin
     id 14 
     name lowerneck
     direction 0.0188995 0.987777 0.154721   
     length 1.78836   
     axis 0 0 0   XYZ
    dof rx ry rz
    limits (-20.0 45.0)
           (-30.0 30.0)
           (-30.0 30.0)
  end
  begin
     id 15 
     name upperneck
     direction -0.00612612 0.992995 -0.118   
     length 1.81789   
     axis 0 0 0   XYZ
    dof rx ry rz
    limits (-20.0 45.0)
           (-30.0 30.0)
           (-30.0 30.0)
  end
  begin
     id 16
     name head
     direction -0.00420226 0.998397 -0.0564482  
     length 1.82234  
     axis 0 0 0   XYZ
    dof rx ry rz
    limits (-20.0 45.0)
           (-30.0 30.0)
           (-30.0 30.0)
  end
  begin
     id 17 
     name lclavicle
     direction 0.916488 0.396539 0.0529676  
     length 3.51732  
     axis 0 0 0   XYZ
    dof ry rz
    limits (-20.0 10.0)
           (0.0 20.0)
  end
  begin
     id 18 
     name lhumerus
     direction 1 -4.4896e-011 8.36962e-028   
     length 5.45077   
     axis 180 -30 -90   XYZ
    dof rx ry rz
    limits (-60.0 90.0)
           (-90.0 90.0)
           (-90.0 90.0)
  end
  begin
     id 19
     name lradius
     direction 1 -4.48962e-011 3.01407e-027   
     length 3.05488   
     axis 180 -30 -90   XYZ
    dof rx
    limits (-10.0 170.0)
  end
  begin
     id 20
     name lwrist
     direction 1 -4.49002e-011 4.72961e-027   
     length 1.52744   
     axis -2.72261e-015 90 90   XYZ
    dof ry
    limits (-180.0 0.0)
 end
  begin
     id 21 
     name lhand
     direction 1 -4.4899e-011 9.45681e-027   
     length 0.638818   
     axis -6.0311e-015 90 90   XYZ
    dof rx rz
    limits (-90.0 90.0)
           (-45.0 45.0)
  end
  begin
     id 22 
     name lfingers
     direction 1 -4.48871e-011 1.88632e-026   
     length 0.515032   
     axis -1.20625e-014 90 90   XYZ
    dof rx
    limits (0.0 90.0)
  end
  begin
     id 23
     name lthumb
     direction 0.707107 -6.34964e-011 0.707107   
     length 0.739485   
     axis -90 45 6.32835e-014   XYZ
    dof rx rz
    limits (-45.0 45.0)
           (-45.0 45.0)
  end
  begin
     id 24 
     name rclavicle
     direction -0.949427 0.303202 0.0815894   
     length 3.76167  
     axis 0 0 0   XYZ 
    dof ry rz
    limits (-10.0 20.0)
           (-20.0 0.0)
  end
  begin
     id 25 
     name rhumerus
     direction -1 -4.48971e-011 -6.43969e-018  
     length 4.88702   
     axis 180 30 90   XYZ
    dof rx ry rz
    limits (-90.0 60.0)
           (-90.0 90.0)
           (-90.0 90.0)
  end
  begin
     id 26 
     name rradius
     direction -1 -4.48987e-011 5.46662e-027   
     length 3.22603   
     axis 180 30 90   XYZ
    dof rx
    limits (-10.0 170.0)
  end
  begin
     id 27 
     name rwrist
     direction -1 -4.48956e-011 4.72476e-027   
     length 1.61302   
     axis -2.72261e-015 -90 -90   XYZ
    dof ry
    limits (-180.0 0.0)
  end
  begin
     id 28
     name rhand
     direction -1 -4.4889e-011 9.43571e-027   
     length 0.716293   
     axis -6.0311e-015 -90 -90   XYZ
    dof rx rz
    limits (-90.0 90.0)
           (-45.0 45.0)
  end
  begin
     id 29
     name rfingers
     direction -1 -4.48887e-011 1.88701e-026   
     length 0.577494   
     axis -1.20625e-014 -90 -90   XYZ
    dof rx
    limits (0.0 90.0)
  end
  begin
     id 30
     name rthumb
     direction -0.707107 -6.34825e-011 0.707107   
     length 0.829169   
     axis -90 -45 -6.32835e-014   XYZ
    dof rx rz
    limits (-45.0 45.0)
           (-45.0 45.0)
  end
:hierarchy
  begin
    root lhipjoint rhipjoint lowerback
    lhipjoint lfemur
    lfemur ltibia
    ltibia lfoot
    lfoot ltoes
    rhipjoint rfemur
    rfemur rtibia
    rtibia rfoot
    rfoot rtoes
    lowerback upperback
    upperback thorax
    thorax lowerneck lclavicle rclavicle
    lowerneck upperneck
    upperneck head
    lclavicle lhumerus
    lhumerus lradius
    lradius lwrist
    lwrist lhand lthumb
    lhand lfingers
    rclavicle rhumerus
    rhumerus rradius
    rradius rwrist
    rwrist rhand rthumb
    rhand rfingers
  end

#!OML:ASF F:\VICON\USERDATA\INSTALL\rory3\rory3.ASF
:FULLY-SPECIFIED
:DEGREES
2106
root 0.184337 18.5252 -0.338129 57.9055 74.3241 37.1644
lowerback 4.56794 -0.442525 6.57208
upperback 2.30522 -0.152749 4.68648
thorax -0.191165 0.00862477 1.1575
lowerneck -11.087 -14.7229 -6.83926
upperneck 17.7209 -20.3721 8.4516
head 8.94741 -9.2195 1.43401
rclavicle -3.18055e-015 -6.36111e-014
rhumerus -8.5823 1.34354 -58.5699
rradius 31.814
rwrist -10.7097
rhand -21.6885 2.62375
rfingers 7.12502
rthumb 4.70955 -27.3039
lclavicle -3.18055e-015 -6.36111e-014
lhumerus -68.1406 -40.6871 103.748
lradius 70.4642
lwrist -4.18375
lhand -3.52218 13.2707
lfingers 7.12502
lthumb 22.2127 42.0143
rfemur -30.1214 0.997798 1.73199
rtibia 14.574
rfoot -5.9899 5.4641
rtoes -14.3544
lfemur -26.2349 15.9545 -36.1554
ltibia 11.2612
lfoot -6.80683 -4.91562
ltoes -22.3303
2107
root 0.202576 18.5317 -0.29229 57.7886 74.8817 37.3469
lowerback 4.2651 -0.466601 6.44569
upperback 2.16971 -0.218248 4.58571
thorax -0.163974 -0.0285383 1.12467
lowerneck -11.1555 -14.3738 -6.77733
upperneck 17.6379 -19.8388 8.15349
head 8.84702 -9.00036 1.41162
rclavicle -3.65764e-014 9.54166e-014
rhumerus -9.99572 3.06108 -59.6077
rradius 31.8635
rwrist -9.70906
rhand -21.6773 2.72371
rfingers 7.12502
rthumb 4.72038 -27.2037
lclavicle -3.65764e-014 9.54166e-014
lhumerus -66.9721 -40.3849 103.048
lradius 69.1615
lwrist -3.97408
lhand -3.5429 13.7935
lfingers 7.12502
lthumb 22.1928 42.5395
rfemur -29.4849 0.93733 2.34468
rtibia 14.3884
rfoot -6.06292 5.46715
rtoes -13.7379
lfemur -25.6992 15.4834 -35.3037
ltibia 11.2506
lfoot -6.98873 -4.54167
ltoes -23.0647
2108
root 0.2236 18.5374 -0.247401 57.3742 75.4309 37.2281
lowerback 3.97154 -0.425519 6.40436
upperback 2.07311 -0.196669 4.42291
thorax -0.0993854 -0.0204899 0.976771
lowerneck -11.5611 -14.0411 -6.34889
upperneck 17.7278 -19.3471 7.60289
head 8.80512 -8.78294 1.22646
rclavicle -9.54166e-015 8.5875e-014
rhumerus -11.3566 3.87405 -60.8061
rradius 31.8331
rwrist -8.28082
rhand -21.1548 3.09324
rfingers 7.12502
rthumb 5.22486 -26.8224
lclavicle -9.54166e-015 8.5875e-014
lhumerus -65.5675 -40.1073 102.1
lradius 67.7696
lwrist -3.71325
lhand -3.23421 14.2144
lfingers 7.12502
lthumb 22.4892 42.9249
rfemur -28.8626 0.921634 2.99814
rtibia 14.2134
rfoot -6.10045 5.52364
rtoes -12.8962
lfemur -25.1528 15.1166 -34.4273
ltibia 11.2045
lfoot -7.07558 -4.2005
ltoes -23.0711
2109
root 0.248914 18.5443 -0.203583 56.867 75.9026 36.9918
lowerback 3.62831 -0.38769 6.27583
upperback 1.93658 -0.183324 4.30123
thorax -0.0480729 -0.018174 0.920188
lowerneck -11.9796 -13.6846 -6.03943
upperneck 17.9913 -18.8056 7.0087
head 8.83397 -8.54619 1.04301
rclavicle 1.27222e-014 -7.63333e-014
rhumerus -12.7826 4.49315 -61.9729
rradius 32.0183
rwrist -6.97957
rhand -20.6752 3.16556
rfingers 7.12502
rthumb 5.68796 -26.7381
lclavicle 1.27222e-014 -7.63333e-014
lhumerus -64.186 -39.5574 101.17
lradius 66.4302
lwrist -3.32825
lhand -2.87783 14.5677
lfingers 7.12502
lthumb 22.8312 43.2364
rfemur -28.2802 0.872861 3.6199
rtibia 14.0498
rfoot -6.12755 5.62535
rtoes -12.6784
lfemur -24.6211 14.7786 -33.619
ltibia 11.1336
lfoot -7.14409 -3.85495
ltoes -22.8576
2110
root 0.273223 18.5512 -0.159836 57.0792 76.3251 37.4761
lowerback 3.29589 -0.390376 5.98206
upperback 1.75673 -0.223719 4.20355
thorax -0.0485287 -0.0455748 0.982172
lowerneck -12.4878 -13.3274 -5.93352
upperneck 18.4333 -18.2333 6.41914
head 8.96397 -8.29879 0.87928
rclavicle 1.90833e-014 6.04305e-014
rhumerus -14.2414 4.87648 -63.0551
rradius 32.2268
rwrist -6.0594
rhand -20.6546 3.25913
rfingers 7.12502
rthumb 5.70784 -26.644
lclavicle 1.90833e-014 6.04305e-014
lhumerus -62.9078 -38.8596 100.388
lradius 65.0999
lwrist -2.76753
lhand -2.8504 15.1093
lfingers 7.12502
lthumb 22.8575 43.7747
rfemur -27.6765 0.648826 4.10494
rtibia 13.8733
rfoot -6.14523 5.70173
rtoes -12.7345
lfemur -24.1118 14.4982 -33.0528
ltibia 11.0477
lfoot -7.22743 -3.68287
ltoes -23.7188
